<svg xmlns="http://www.w3.org/2000/svg">
  <defs>
    <symbol viewBox="0 0 24 24" id="download">
      <path d="M3.869 23.5A3.372 3.372 0 01.5 20.131v-1.913a.5.5 0 011 0v1.913A2.372 2.372 0 003.869 22.5h16.262a2.373 2.373 0 002.369-2.369v-1.913a.5.5 0 011 0v1.913a3.374 3.374 0 01-3.369 3.369H3.869z"/>
      <path d="M12 18.608a.492.492 0 01-.355-.148l-6.999-6.999a.5.5 0 11.708-.707L11.5 16.9V1a.5.5 0 011 0v15.901l6.146-6.146a.5.5 0 11.708.708l-7 7a.507.507 0 01-.163.109.54.54 0 01-.191.036z"/>
    </symbol>
    <symbol viewBox="0 0 24 24" id="search">
      <path d="M23.85 23.15l-9-9a8.55 8.55 0 10-.71.71l9 9a.5.5 0 00.71-.71zM1 8.5A7.5 7.5 0 118.5 16 7.51 7.51 0 011 8.5z"/>
    </symbol>
    <symbol viewBox="0 0 24 24" id="remove">
      <path d="M23.5 24a.5.5 0 01-.354-.146L12 12.707.854 23.854a.5.5 0 01-.708-.707L11.293 12 .147.854A.5.5 0 01.854.146L12 11.293 23.147.146a.497.497 0 01.707 0 .5.5 0 010 .707L12.707 12l11.146 11.146A.5.5 0 0123.5 24z"/>
    </symbol>
    <symbol viewBox="0 0 24 24" id="warning">
      <path d="M2.251 23.249a2.252 2.252 0 01-1.969-3.337l9.747-17.995a2.251 2.251 0 013.942-.005l9.753 18.005a2.252 2.252 0 01-1.973 3.332h-19.5zm9.749-21a.749.749 0 00-.655.388L1.598 20.632a.747.747 0 00-.066.575.746.746 0 00.719.543h19.5a.75.75 0 00.656-1.112L12.655 2.633A.74.74 0 0012 2.249z"/>
      <path d="M12.001 19.499a.796.796 0 01-.13-.011 1.126 1.126 0 01-.983-.983.717.717 0 010-.262c.06-.513.47-.922.983-.982a.702.702 0 01.261 0c.513.06.923.47.983.983a.808.808 0 010 .262 1.126 1.126 0 01-1.114.993zm0-3.75a.75.75 0 01-.75-.75v-6.75a.75.75 0 011.5 0v6.75a.75.75 0 01-.75.75z"/>
    </symbol>
    <symbol viewBox="0 0 24 24" id="caret-down">
      <path d="M12 18.999c-.4 0-.776-.156-1.059-.438L.22 7.841A.745.745 0 010 7.31c0-.2.078-.389.22-.53a.744.744 0 011.06 0L12 17.499 22.72 6.78a.744.744 0 011.06 0 .744.744 0 010 1.06L13.06 18.56a1.487 1.487 0 01-1.06.439z"/>
    </symbol>
    <symbol viewBox="0 0 24 24" id="caret-right">
      <path d="M5.499 24a.752.752 0 01-.53-1.281L15.689 12 4.969 1.28c-.142-.141-.22-.33-.22-.53s.078-.389.22-.53c.141-.142.33-.22.53-.22s.389.078.53.22l10.72 10.72a1.5 1.5 0 01.001 2.119L6.029 23.78a.743.743 0 01-.53.22z"/>
    </symbol>
    <symbol viewBox="0 0 24 24" id="copy">
      <path d="M1.5 22C.673 22 0 21.327 0 20.5v-16C0 3.673.673 3 1.5 3h1.586c.209-.59.774-1 1.414-1h2v-.001c0-1.103.897-2 2-2s2 .897 2 2V2h2c.64 0 1.205.41 1.414 1H15.5c.827 0 1.5.673 1.5 1.5V8a.5.5 0 01-1 0V4.5a.5.5 0 00-.5-.5H14v.5c0 .827-.673 1.5-1.5 1.5h-8C3.673 6 3 5.327 3 4.5V4H1.5a.5.5 0 00-.5.5v16a.5.5 0 00.5.5h8a.5.5 0 010 1h-8zm3-19a.5.5 0 00-.5.5v1a.5.5 0 00.5.5h8a.5.5 0 00.5-.5v-1a.5.5 0 00-.5-.5h-2.271c-.356.612-1.018.999-1.729.999S7.127 3.612 6.771 3H4.5zm4-2.001c-.551 0-1 .449-1 1s.449 1 1 1 1-.449 1-1-.449-1-1-1z"/>
      <path d="M12.5 24c-.827 0-1.5-.673-1.5-1.5V11c0-.827.673-1.5 1.5-1.5h7.086c.401 0 .777.156 1.061.439l1.914 1.914c.279.28.439.666.439 1.061V22.5c0 .827-.673 1.5-1.5 1.5h-9zm0-13.5a.5.5 0 00-.5.5v11.5a.5.5 0 00.5.5h9a.5.5 0 00.5-.5v-9.586a.501.501 0 00-.146-.353l-1.914-1.914a.498.498 0 00-.354-.146H12.5z"/>
      <path d="M14.5 14.999a.5.5 0 010-1h5a.5.5 0 010 1h-5zm0 3a.5.5 0 010-1h5a.5.5 0 010 1h-5z"/>
    </symbol>
    <symbol viewBox="0 0 24 24" id="settings">
      <path d="M17.25 18.751c-1.241 0-2.25-1.009-2.25-2.25s1.009-2.25 2.25-2.25 2.25 1.009 2.25 2.25-1.009 2.25-2.25 2.25zm0-3a.75.75 0 100 1.5.75.75 0 000-1.5z"/>
      <path d="M17.253 24c-.202 0-.404-.03-.6-.089a2.073 2.073 0 01-1.395-1.395l-.441-1.45a.247.247 0 00-.29-.168l-1.47.34a2.08 2.08 0 01-1.581-.271 2.087 2.087 0 01-.414-3.188l1.031-1.111a.252.252 0 00.001-.341l-1.032-1.112a2.069 2.069 0 01-.557-1.498c.02-.558.257-1.074.665-1.454a2.077 2.077 0 011.882-.508l1.477.342a.245.245 0 00.287-.168l.443-1.454a2.08 2.08 0 013.984.01l.441 1.45a.247.247 0 00.289.168l1.471-.34c.154-.035.309-.052.463-.052a2.088 2.088 0 011.53 3.512l-1.031 1.11a.251.251 0 000 .341l1.031 1.112c.38.408.578.94.557 1.498a2.074 2.074 0 01-.665 1.454 2.08 2.08 0 01-1.881.507l-1.476-.342a.233.233 0 00-.053-.006.245.245 0 00-.234.174l-.443 1.449a2.061 2.061 0 01-1.004 1.23c-.305.163-.645.25-.985.25zm-2.672-4.608c.763 0 1.451.51 1.671 1.239l.442 1.452a.581.581 0 001.112.003l.443-1.451a1.757 1.757 0 012.059-1.193l1.474.342a.588.588 0 00.714-.555.587.587 0 00-.157-.423l-1.031-1.112a1.757 1.757 0 010-2.383l1.031-1.11a.588.588 0 00-.561-.976l-1.468.34c-.128.03-.26.045-.391.045-.762 0-1.449-.51-1.669-1.239l-.442-1.452a.581.581 0 00-1.113-.008l-.443 1.455a1.754 1.754 0 01-2.06 1.194l-1.473-.342a.586.586 0 00-.526.145.588.588 0 00-.031.832l1.032 1.112a1.757 1.757 0 010 2.383l-1.031 1.11a.588.588 0 00.561.976l1.467-.34c.128-.029.259-.044.39-.044z"/>
      <path d="M2.25 21.001A2.252 2.252 0 010 18.751v-16.5A2.252 2.252 0 012.25.001h10.629c.6 0 1.165.234 1.59.658l2.872 2.872c.425.425.659.99.659 1.591v1.629a.75.75 0 01-1.5 0V5.122c0-.2-.078-.388-.219-.53L13.409 1.72a.748.748 0 00-.53-.219H2.25a.75.75 0 00-.75.75v16.5c0 .414.336.75.75.75h6a.75.75 0 010 1.5h-6z"/>
    </symbol>
    <symbol viewBox="0 0 24 24" id="logout">
      <path d="M14.244 22.507a.75.75 0 010-1.5h4.5a.75.75 0 00.75-.75v-1.5a.75.75 0 011.5 0v1.5a2.252 2.252 0 01-2.25 2.25h-4.5zm6-15a.75.75 0 01-.75-.75v-1.5a.75.75 0 00-.75-.75h-4.5a.75.75 0 010-1.5h4.5a2.252 2.252 0 012.25 2.25v1.5c0 .413-.337.75-.75.75zm-9.751 16.499c-.071 0-.143-.005-.214-.016l-8.997-1.285a1.508 1.508 0 01-1.288-1.484V3.728A1.506 1.506 0 011.18 2.26L10.157.044a1.51 1.51 0 011.804 1.147c.022.103.033.209.033.315v21c0 .401-.156.778-.44 1.061a1.49 1.49 0 01-1.061.439zM1.517 3.722l-.024.008.001 17.49 9.002 1.285-.002-21-8.977 2.217zm18.728 12.784a.749.749 0 01-.53-1.28l1.72-1.72h-6.441a.75.75 0 010-1.5h6.439l-1.72-1.72c-.142-.141-.22-.33-.22-.53s.078-.389.22-.53a.749.749 0 011.06 0l3.001 3a.495.495 0 01.045.054.756.756 0 01.137.254.793.793 0 01.035.257.82.82 0 01-.067.279.712.712 0 01-.106.167.44.44 0 01-.042.051l-3 3a.757.757 0 01-.531.218z"/>
      <path d="M7.869 13.132c-.62 0-1.125-.505-1.125-1.125 0-.573.425-1.05.992-1.117a.74.74 0 01.133-.012 1.128 1.128 0 010 2.254z"/>
    </symbol>
    <symbol viewBox="0 0 24 24" id="upload">
      <path d="M17.25 24c-3.722 0-6.75-3.028-6.75-6.75s3.028-6.75 6.75-6.75S24 13.528 24 17.25 20.972 24 17.25 24zm0-12C14.355 12 12 14.355 12 17.25s2.355 5.25 5.25 5.25 5.25-2.355 5.25-5.25S20.145 12 17.25 12z"/>
      <path d="M17.25 21a.75.75 0 01-.75-.75v-4.189l-.97.97a.744.744 0 01-1.06 0 .752.752 0 010-1.061l2.25-2.25a.74.74 0 01.245-.163l.026-.01a.733.733 0 01.517-.001l.017.006a.748.748 0 01.256.167l2.25 2.25a.752.752 0 01-.53 1.281.743.743 0 01-.53-.22L18 16.061v4.189a.75.75 0 01-.75.75zm-15 0A2.252 2.252 0 010 18.75V2.25A2.252 2.252 0 012.25 0h10.629c.601 0 1.165.234 1.59.658l2.872 2.872c.425.425.659.99.659 1.591V8.25a.75.75 0 01-1.5 0V5.121c0-.197-.08-.39-.219-.53l-2.872-2.872a.748.748 0 00-.53-.219H2.25a.75.75 0 00-.75.75v16.5c0 .414.336.75.75.75h6a.75.75 0 010 1.5h-6z"/>
      <circle cx="5.25" cy="6" r="1.125"/>
      <path d="M3.75 15a.747.747 0 01-.674-1.078l1.937-3.981a1.24 1.24 0 01.127-.193 1.49 1.49 0 011.172-.562c.339 0 .672.117.937.329l.608.487 1.541-2.197a1.492 1.492 0 011.227-.639c.504 0 .972.25 1.25.669l.846 1.354a.75.75 0 01-1.272.794l-.835-1.336-1.988 2.87a.752.752 0 01-1.084.154l-1.225-.981-1.368 2.81H8.25c.414 0 .75.336.75.75S3.75 15 3.75 15z"/>
    </symbol>
    <symbol viewBox="0 0 24 24" id="fullscreen">
      <path d="M23.5 6a.5.5 0 01-.5-.5v-4a.5.5 0 00-.5-.5h-6a.5.5 0 010-1h6c.827 0 1.5.673 1.5 1.5v4a.5.5 0 01-.5.5zM.5 6a.5.5 0 01-.5-.5v-4C0 .673.673 0 1.5 0h6a.5.5 0 010 1h-6a.5.5 0 00-.5.5v4a.5.5 0 01-.5.5zm16 18a.5.5 0 010-1h6a.5.5 0 00.5-.5v-4a.5.5 0 011 0v4c0 .827-.673 1.5-1.5 1.5h-6zm-15 0C.673 24 0 23.327 0 22.5v-4a.5.5 0 011 0v4a.5.5 0 00.5.5h6a.5.5 0 010 1h-6zm5-8.001c-.827 0-1.5-.673-1.5-1.5v-5c0-.827.673-1.5 1.5-1.5h11c.827 0 1.5.673 1.5 1.5v5c0 .827-.673 1.5-1.5 1.5h-11zm0-7a.5.5 0 00-.5.5v5a.5.5 0 00.5.5h11a.5.5 0 00.5-.5v-5a.5.5 0 00-.5-.5h-11z"/>
    </symbol>
    <symbol viewBox="0 0 206 48" id="rokkalogo">
      <g fill="#fff" fill-rule="evenodd">
        <path d="M65.652 38.602h7.122V28.72h2.013c.774 0 1.548 0 2.323-.155l4.955 10.037h7.741l-6.038-11.735c2.942-1.699 4.645-4.787 4.49-8.184 0-5.867-4.026-9.573-11.148-9.573H65.652v29.492zM76.8 15.286c2.942 0 4.18 1.236 4.18 3.706 0 2.625-1.548 3.86-4.49 3.86h-3.716v-7.566H76.8zm22.142 8.493c0-5.096 2.477-8.647 6.813-8.647 4.335 0 6.968 3.397 6.968 8.647 0 5.404-2.478 8.8-6.968 8.8-4.336 0-6.813-3.396-6.813-8.8zm-7.587 0c-.155 4.169 1.239 8.183 3.87 11.117 6.04 5.404 15.175 5.404 21.059 0 2.787-3.088 4.18-7.103 3.87-11.272.156-4.014-1.238-8.029-3.87-11.117-6.039-5.404-15.174-5.404-21.058 0-2.632 3.242-4.026 7.257-3.871 11.272zm39.948 14.823V26.558h2.942l6.813 12.044h8.207l-8.826-15.132 8.206-14.36h-7.897l-6.193 11.426h-3.097V9.11h-7.277v29.337h7.122v.155zm28.026 0V26.558h2.942l6.813 12.044h8.206l-8.825-15.132 8.051-14.206h-7.897l-6.193 11.427h-3.097V9.11h-7.123v29.337h7.123v.155zm18.116 0h7.742l1.548-5.405h9.29l1.704 5.405h7.742L195.097 9.264h-7.123l-10.529 29.338zm13.936-21.154l2.787 9.728h-5.574l2.787-9.728zm6.038-10.809V2.316h-11.767v4.17h11.767v.153z"/>
        <path opacity=".8" d="M24.774 27.33L0 13.588v20.381l24.774 13.588z"/>
        <path d="M24.774 27.33l24.774-13.588V33.97L24.774 47.557z"/>
        <path opacity=".5" d="M49.548 13.588L24.774 0v20.382l24.774 13.587z"/>
        <path opacity=".3" d="M0 13.588L24.774 0v20.382L0 33.969z"/>
      </g>
    </symbol>
    <symbol viewBox="0 0 24 24" id="sort">
      <path d="M2 24c-.827 0-1.5-.673-1.5-1.5 0-.276.224-.5.5-.5s.5.224.5.5.224.5.5.5.5.224.5.5-.224.5-.5.5zM10 24c-.276 0-.5-.224-.5-.5s.224-.5.5-.5.5-.224.5-.5.224-.5.5-.5.5.224.5.5c0 .827-.673 1.5-1.5 1.5zM1 21c-.276 0-.5-.224-.5-.5v-1c0-.276.224-.5.5-.5s.5.224.5.5v1c0 .276-.224.5-.5.5zM4 24c-.276 0-.5-.224-.5-.5s.224-.5.5-.5h1c.276 0 .5.224.5.5s-.224.5-.5.5H4zM4 14c-.276 0-.5-.224-.5-.5s.224-.5.5-.5h1c.276 0 .5.224.5.5s-.224.5-.5.5H4zM7 24c-.276 0-.5-.224-.5-.5s.224-.5.5-.5h1c.276 0 .5.224.5.5s-.224.5-.5.5H7zM7 14c-.276 0-.5-.224-.5-.5s.224-.5.5-.5h1c.276 0 .5.224.5.5s-.224.5-.5.5H7zM11 15c-.276 0-.5-.224-.5-.5s-.224-.5-.5-.5-.5-.224-.5-.5.224-.5.5-.5c.827 0 1.5.673 1.5 1.5 0 .276-.224.5-.5.5zM11 18c-.276 0-.5-.224-.5-.5v-1c0-.276.224-.5.5-.5s.5.224.5.5v1c0 .276-.224.5-.5.5zM1 15c-.276 0-.5-.224-.5-.5 0-.827.673-1.5 1.5-1.5.276 0 .5.224.5.5s-.224.5-.5.5-.5.224-.5.5-.224.5-.5.5zM1 18c-.276 0-.5-.224-.5-.5v-1c0-.276.224-.5.5-.5s.5.224.5.5v1c0 .276-.224.5-.5.5zM11 21c-.276 0-.5-.224-.5-.5v-1c0-.276.224-.5.5-.5s.5.224.5.5v1c0 .276-.224.5-.5.5zM2 11c-.827 0-1.5-.673-1.5-1.5v-8C.5.673 1.173 0 2 0h8c.827 0 1.5.673 1.5 1.5v8c0 .827-.673 1.5-1.5 1.5H2zM2 1c-.276 0-.5.224-.5.5v8c0 .276.224.5.5.5h8c.276 0 .5-.224.5-.5v-8c0-.276-.224-.5-.5-.5H2zM19 19.483c-.066 0-.13-.013-.191-.039a.4766.4766 0 0 1-.163-.109l-3.999-3.999c-.094-.094-.146-.22-.146-.354s.052-.259.146-.354.22-.146.354-.146.259.052.354.146l3.146 3.146V3.5c-.001-.276.223-.5.499-.5s.5.224.5.5v14.276l3.146-3.146c.094-.094.22-.146.354-.146s.259.052.354.146.146.22.146.354-.052.259-.146.354l-4 4c-.045.046-.101.083-.163.109-.061.023-.125.036-.191.036z"/>
    </symbol>
  </defs>
</svg>